# xmcd
#
# Track frame offsets:
#	150
#	1376
#	9294
#	22275
#	30389
#	40765
#	58674
#	74159
#	97223
#	114158
#	121812
#	143939
#	155438
#	178118
#	191346
#	206902
#	224819
#	243581
#	255428
#	266479
#
# Disc length: 3800 seconds
#
# Revision: 2
# Processed by: cddbd v1.5.2PL0 Copyright (c) Steve Scherf et al.
# Submitted via: audiograbber 1.83.01
#
DISCID=250ed614
DTITLE=Various Artist - Macca By Request
DYEAR=2002
DGENRE=Country
TTITLE0=The Weehalle Public School - The Man From Snowy River
TTITLE1=Drew Forsythe - Ring Macca
TTITLE2=Roger Holt and Penny Davies - The Monkeys Sing Soprano (Around Stanthorpe
TTITLE2=In July)
TTITLE3=Ian McNamara - Ubobo
TTITLE4=David Berman - Galah
TTITLE5=Us Not Them - Salvation Jane
TTITLE6=Aubrey and Martin - The Lights Of Wollongong
TTITLE7=Dermot Dorgon - You'd Better Thank A Farmer
TTITLE8=Ian McNamara - The Ballad Of Big Pete
TTITLE9=Joanne and Gillian Vogle - Shut The Gate
TTITLE10=Kathie Renner - Steamers
TTITLE11=Dermot Dorgon - The Call Of The Cappuccino
TTITLE12=Ian McNamara and Digger Revell - The Man With The Big Hat
TTITLE13=International Novelty Quartet - Silver Bell
TTITLE14=Noel Murphy - Murphy And The Bricks
TTITLE15=Dave de Hugard - The Rabbit Trapper
TTITLE16=Ken (Chainsaw) Lindsay - The Night I Saved John Wayne
TTITLE17=The Goodwills - Underneath The Story Bridge
TTITLE18=Andra Wills Muhoberac - Carol For The Wheat Country
TTITLE19=Ian McNamara - We The People
EXTD=
EXTT0=
EXTT1=
EXTT2=
EXTT3=
EXTT4=
EXTT5=
EXTT6=
EXTT7=
EXTT8=
EXTT9=
EXTT10=
EXTT11=
EXTT12=
EXTT13=
EXTT14=
EXTT15=
EXTT16=
EXTT17=
EXTT18=
EXTT19=
PLAYORDER=
